<?xml version="1.0" encoding="utf-8"?>
<!-- Generator: Adobe Illustrator 25.0.0, SVG Export Plug-In . SVG Version: 6.00 Build 0)  -->
<svg version="1.1" xmlns="http://www.w3.org/2000/svg" xmlns:xlink="http://www.w3.org/1999/xlink" x="0px" y="0px"
	 viewBox="0 0 401.8 185.4" style="enable-background:new 0 0 401.8 185.4;" xml:space="preserve">
<style type="text/css">
	.st0{fill:#FF931E;}
	.st1{fill:none;}
</style>
<g id="元のテキスト">
	<g id="レイヤー_2_1_">
		<g id="レイヤー_1-2">
			<path class="st0" d="M101.7,24.7c2.7,3.6-2.4,8.1-5,12.8c-0.5,1-1,1.3-2.7,0.7c-3.1-1-4.9-3.6-3.1-7.5c1.4-3.1,5.3-6.8,3.5-7.7
				c-2.2-1.2-11.9,4.3-17.7,12c-7.1,9.7-4.4,16.8,3.2,16.9c10.8,0.1,20.1-6.7,25.4-12.1c0.5-0.6,1.4-0.7,2-0.2
				c0.1,0.1,0.2,0.2,0.3,0.3c0.4,0.7-0.1,2.8-2.3,5.1c-4.9,5-15.1,9.2-24.9,9.3c-16.4,0.2-21.9-10.4-13.5-21.5
				C75.2,22,88.2,17.4,94.6,20C98.1,21.4,100.2,22.7,101.7,24.7z"/>
			<path class="st0" d="M114.7,51.7c6.2,0.3,15.2-5.8,20.2-12.4c0.9-1.1,2.3-1.2,2.8,0c0.6,1.4,0.1,3.2-1.3,5.3
				c-1.8,2.6-11.2,9.7-21.5,9.5c-8.9-0.2-13.7-4.3-10.7-13.5c4.8-14.9,19.5-30.4,32.6-39.5c1.9-1.4,3.7-1.5,5.5-0.4
				c3.7,2.2,4.5,5.4,3,9.4c-4,10.5-18.4,20.8-29.9,25.8C110.3,44.3,108.9,51.4,114.7,51.7z M141,8.4c-1.7-0.7-11.2,8.8-20.1,19.8
				c-1.1,1.3-2.1,2.7-3.1,4.1C135.5,22.7,142.7,9,141,8.4z"/>
			<path class="st0" d="M139.2,54.1c-9.1-0.4-9.4-6.8-6.6-12.4s9.4-14,17.8-21.8c0.9-0.9,2.4-0.9,3.4-0.1c2.8,2.8,2.2,6.7-2.4,11.5
				c-3.7,3.9-7.1,8.1-10.1,12.6c-2.7,4.2-2.3,7.3,0.6,7.5c5,0.3,12.1-5.7,19.1-13.2c8.1-8.7,11.9-14.6,16-18.3
				c1.3-1.2,2.2-1.4,3.2-0.5c1.9,1.5,3,5.3-0.1,9.6c-2.8,3.9-9.3,10.3-12.2,14.6c-3.4,4.9-2.8,8.5,1.8,8.3c5.4-0.2,12-5.8,17-11.8
				c0.5-0.7,1.4-0.8,2-0.4c0.1,0.1,0.2,0.2,0.3,0.3c0.5,0.7,0.6,3-1.2,5.4c-3.7,4.8-11.7,9.2-19.3,9.2c-8.4,0-11.7-3.5-10.7-8.5
				C153.3,50.1,146.4,54.5,139.2,54.1z"/>
			<path class="st0" d="M204.4,24.3c0.4-2.8,2.1-5.3,4.6-6.6c2.8-1.7,5.8-2.1,7-1.3c1.2,0.8,0.6,1.8-1,3.8c-0.5,0.5-0.9,1-1.4,1.6
				c-0.9,7.9,1.6,14.5,1.2,20.5c-0.3,3.3-1.2,6.9-5.8,9c7-1.7,13.2-5.9,17.3-11.9c0.5-0.7,1.5-0.8,2.2-0.3c0.1,0.1,0.2,0.2,0.3,0.3
				c0.5,0.8,0.4,3-1.8,5.7c-4.9,5.9-13.7,9.2-22.8,9.4c-7.5,0.2-14.7-1.1-19.1-6.4c-3.1-3.9-2.7-9.5,1.7-11.9
				c1.6-0.8,2.6-0.5,2.7,0.9c0.1,0.7,0.1,1.4,0.2,2C194.9,34.3,199.8,29.4,204.4,24.3z M190.8,43.6c1.9,5,5.7,8.5,9.9,7.6
				c5.9-1.2,4-14.6,3.5-21.5C200,34.6,195.5,39.3,190.8,43.6z"/>
			<path class="st0" d="M231.3,17.5c-1.3-1.2-0.5-1.8,1.4-1.7c3.6,0.1,7.2-0.1,10.7-0.3c3-3.7,6.3-7.3,9.8-10.6c1.2-1.1,2.4-1,3.1,0
				c1.4,2.4,1.4,5.2-1.7,9.7c5-0.1,7,1.4,8,2.6s0.4,1.6-1.6,1.6c-3.3-0.2-6.7-0.1-10,0.3c-5,5.7-12.4,14-17.3,21.2
				c-4.2,6.2-2.8,11.6,2.6,11.7c5.8,0.2,13.1-5.9,17.9-12.3c0.8-1,2.2-1.2,2.7,0c0.6,1.4,0,2.9-1.3,4.9c-1.7,2.5-10.2,10-20.5,9.8
				c-8.5-0.2-15.3-6.5-9.1-16.3c4.2-6.3,8.8-12.4,13.7-18.2C235.3,19.7,232.3,18.4,231.3,17.5z"/>
			<path class="st0" d="M319,54.3c-9.8-0.3-13.7-6.2-10.4-13.1c2.7-5.7,10.4-12.1,16-16.2c-4.9,2.1-10.2,3.2-15.5,3.2
				c-10.7,14.9-24.6,25.7-40,25.8c-16.4,0.2-21.9-10.4-13.5-21.4c8.1-10.6,21.3-15.4,27.7-12.9c2.8,1,5.4,2.4,7.6,4.4
				c2.2,2,0.9,7.1-4.2,11.5c-6.5,5.8-16,6.9-23.6,2.6c-4.1,7.8-0.9,13.3,5.7,13.5c14.2,0.4,28.4-13.1,35.5-24
				c-9.9-2.7,2.7-14.1,8.1-14.3c4-0.1,2.7,5.1-0.5,10.7c4.9-0.6,9.6-1.9,14-4c1.5-0.7,2.7-1.1,3.6-0.2c2.6,1.9,5.8,6,1.9,8.8
				c-6.1,4.5-12.7,10.3-14.8,14.9s-0.6,8.1,3.2,8.2c5.4,0.2,12-5.5,16.1-11.8c0.3-0.6,1-0.8,1.5-0.4c0.2,0.1,0.3,0.2,0.4,0.4
				c0.6,0.9,0.9,3.2-0.6,5.6C333.9,50.6,326.1,54.5,319,54.3z M279.3,32.1c4.1-3.5,6.8-8,5.2-8.9c-2.8-1.6-13.4,3.8-19.3,11.6
				c-0.4,0.4-0.6,1-1,1.5C270.5,38.9,275.5,35.4,279.3,32.1L279.3,32.1z"/>
			<path class="st0" d="M96.5,105.4c0.3-0.7,1.1-1,1.8-0.7c0.3,0.1,0.5,0.4,0.7,0.7c0.3,0.8,0.5,3-1.7,5.7
				c-4.9,5.9-13.7,8.7-22.9,9.2c-8.2,0.3-13.7-0.4-18.2-3.2c-2.7-1.6-4-3.6-4.4-5.7c-6.7,8.2-13,16.7-18.8,25.6
				c-0.4,0.6-1.2,0.9-1.8,0.5c-0.2-0.1-0.3-0.2-0.4-0.3c-1.9-1.8-2.6-4.2-0.1-9.4c3.9-8.3,25.5-35.4,33.6-42.6
				c1.3-1.1,2.4-1,3.1,0.1c0.7,1.2,0.9,2.5,0.8,3.9c5.7-3.3,13.3-5.7,18.9-1.8c6.2,4.4,3.3,12-1.4,19c-3.9,5.7-8.6,9.8-13.5,11.7
				C84.6,117.4,92.4,111.2,96.5,105.4z M58.7,115.2c4.1,2.2,12.5-4,18.6-12.2c5-6.8,6.4-14,3.2-15s-11.1,3.2-17.2,9.8
				c-1.4,1.5-2.8,3.1-4.4,4.9C55.8,108.1,55.1,113.3,58.7,115.2z"/>
			<path class="st0" d="M129.8,87.2c1.6-0.7,2.6-0.8,3.5-0.2c2.4,1.8,5.5,5.6,1.8,8.4c-5.8,4.4-12.1,9.8-14.2,14.2s-0.5,7.8,3.2,7.9
				c5,0.2,11.2-5.1,15.3-11.3c0.2-0.5,0.8-0.7,1.3-0.5c0.2,0.1,0.4,0.2,0.5,0.4c0.6,0.9,0.8,3-0.6,5.3c-3,5-10.4,8.6-17.3,8.4
				c-9.3-0.2-13-5.9-9.8-12.3c2.8-5.7,10.3-11.7,15.5-15.7c-4.8,2.1-9.9,3.2-15.1,3.2c-4.9,6-17.3,18.1-19.7,25.9
				c-0.3,0.8-1,1.2-2.2,0.4c-3.7-2.6-3.7-6.5-0.3-10.9c3-3.8,11.6-11.8,16.4-16.3c-7.3-3.2,3.9-13.3,8.6-13.3c4-0.1,3,4.9-0.3,10.3
				C121.1,90.7,125.6,89.3,129.8,87.2z"/>
			<path class="st0" d="M178.4,100.9c-2.7,7.3-10.8,15.9-20.4,18.1c-5.7,1.4-11.7,0-16.2-3.8c-5.7-5-3.7-12.4,2.1-19.2
				c4.9-5.8,12.8-10.8,20.5-11.1c4-0.2,6.2,0.6,8.8,2.9c3,2.7,6.8,3.3,6.1,9.4c-0.1,0.7-0.1,1.3-0.3,2c0.8,0,1.6-0.2,2.6-0.2
				s0.9,0.4,0.4,0.9C180.8,100.5,179.6,100.9,178.4,100.9z M167.4,98.8c-2.7-1.4-5.8-4.4-5.9-7.5c-3.7,2.1-7.1,4.8-9.9,8
				c-5.4,6.5-7.3,14.4-4,16.3c3.6,2,11.5-1,17.8-8.9c1.7-2.1,3.2-4.4,4.5-6.8C169,99.5,168.2,99.2,167.4,98.8L167.4,98.8z
				 M171.7,91.2c-0.6-2.7-3.2-2.2-3.9,0.2c-0.6,2.3,0.8,4.8,2.8,6.1C171.8,94.9,172.2,92.7,171.7,91.2L171.7,91.2z"/>
			<path class="st0" d="M217,117.3c5.3-0.2,12.2-5.9,16.8-11.8c0.4-0.6,1.1-0.8,1.7-0.4c0.1,0.1,0.2,0.2,0.3,0.3
				c0.5,0.8,0.6,3-1,5.3c-3.5,4.7-11.5,9.2-18.6,9s-10.4-2.8-10.4-6.8c-4.1,3.4-9.9,6.6-16,6.6c-12,0-14.3-10.9-3.7-21.1
				c10.2-9.9,20.5-13.8,26.9-13.8c5.3,0,7.9,2.7,7.7,5.8c7-8.8,16.8-20.5,21.4-24.8c1.3-1.2,2.4-1.1,3.1,0c1.8,2.8,1.4,6.5-4,12.9
				c-6.2,7.4-18.6,21.5-25,30.5C212.8,114,212.6,117.5,217,117.3z M194.6,101.7c-7,7.4-8.4,14.8-3.4,14.9s12.1-5,18.2-12.8
				c7.5-9.5,9.4-14.9,5.7-15C211.1,88.8,201.7,94.2,194.6,101.7L194.6,101.7z"/>
			<path class="st0" d="M238.9,119.3c-9.1-0.4-9.4-6.8-6.6-12.4s9.4-14,17.8-21.8c0.9-0.9,2.4-0.9,3.4-0.1c2.8,2.8,2.2,6.7-2.4,11.6
				c-3.7,3.9-7.1,8.1-10.1,12.6c-2.7,4.2-2.3,7.3,0.6,7.4c5,0.3,12.1-5.7,19.1-13.2c8.1-8.7,11.9-14.6,16-18.3
				c1.3-1.2,2.2-1.4,3.2-0.5c1.9,1.5,3,5.3-0.1,9.6c-2.8,3.8-9.3,10.3-12.2,14.6c-3.4,4.9-2.8,8.5,1.8,8.3c5.4-0.2,12-5.8,17-11.8
				c0.5-0.7,1.4-0.8,2-0.4c0.1,0.1,0.2,0.2,0.3,0.3c0.5,0.7,0.6,3-1.2,5.4c-3.7,4.8-11.7,9.2-19.3,9.2c-8.4,0-11.7-3.5-10.7-8.5
				C253,115.3,246.1,119.7,238.9,119.3z"/>
			<path class="st0" d="M323.2,89.9c2.7,3.6-2.4,8.1-5,12.8c-0.5,1-1,1.3-2.7,0.7c-3.1-1-4.9-3.6-3.1-7.4c1.4-3.1,5.3-6.8,3.5-7.7
				c-2.2-1.2-11.9,4.3-17.7,12.1c-7.1,9.7-4.4,16.8,3.2,16.9c10.8,0.1,20.1-6.8,25.4-12.2c0.5-0.6,1.4-0.7,2-0.2
				c0.1,0.1,0.2,0.2,0.3,0.3c0.4,0.7-0.1,2.8-2.3,5.1c-4.9,5-15.1,9.2-24.9,9.3c-16.4,0.2-21.9-10.4-13.5-21.5
				c8.2-10.8,21.3-15.4,27.7-12.8C319.6,86.6,321.7,87.9,323.2,89.9z"/>
			<path class="st0" d="M332.1,82.7c-1.3-1.2-0.5-1.8,1.4-1.7c3.6,0.1,7.2-0.1,10.7-0.3c3-3.7,6.3-7.3,9.7-10.6c1.2-1.1,2.5-1,3.1,0
				c1.4,2.4,1.4,5.2-1.7,9.7c5-0.1,7,1.5,8,2.6s0.4,1.6-1.5,1.6c-3.4-0.2-6.7-0.1-10.1,0.3c-5,5.7-12.4,14-17.3,21.2
				c-4.3,6.2-2.8,11.6,2.6,11.7c5.8,0.2,13.1-5.9,17.9-12.3c0.8-1,2.2-1.2,2.7,0c0.6,1.4,0,2.9-1.3,4.9c-1.7,2.5-10.2,10-20.5,9.8
				c-8.5-0.2-15.3-6.5-9.2-16.3c4.2-6.3,8.8-12.4,13.7-18.2C336.1,84.9,333.2,83.7,332.1,82.7z"/>
			<path class="st0" d="M38.7,155.1c2.7,3.6-2.5,8.1-5,12.8c-0.5,1-1,1.3-2.7,0.7c-3.1-1-4.9-3.6-3.1-7.4c1.4-3.1,5.3-6.8,3.5-7.7
				c-2.2-1.2-11.9,4.3-17.7,12.1c-7.1,9.7-4.4,16.8,3.2,16.9c10.8,0.1,20.1-6.8,25.4-12.1c0.5-0.6,1.4-0.7,2-0.2
				c0.1,0.1,0.2,0.2,0.3,0.3c0.4,0.7-0.1,2.8-2.3,5.1c-4.9,5-15.1,9.2-24.9,9.3c-16.4,0.2-22-10.4-13.6-21.5
				c8.2-10.8,21.3-15.4,27.7-12.8C35.1,151.8,37.1,153.1,38.7,155.1z"/>
			<path class="st0" d="M161.9,175.9c-3.6,4.7-11.9,9.2-19.2,9.1c-11.1-0.1-14.9-5.9-10.4-12.8c4.6-7.2,16.1-16.6,14.2-17.1
				c-1-0.2-5.5,0.9-13.8,6.3c-10.6,7-16.9,15.1-22.3,23.1c-0.6,0.9-1.8,1.3-2.7,0.7c-0.1-0.1-0.2-0.1-0.3-0.2
				c-2.1-1.4-3.6-4.6-0.1-10.7c4.1-7.1,17.9-18.8,15.5-19.5c-1.3-0.4-7.7,2-16,7.9c-7.4,5.4-13.6,13.3-18.8,21.3
				c-0.5,0.7-1.2,0.9-2.4,0.3c-2.7-1.5-3.3-4.4-1.3-8.6c1.3-2.8,4.5-7.2,8.2-12c-3.8,1.7-7.9,2.4-12,2.1
				c-2.6,7.4-10.7,16.3-20.2,18.3c-4.6,1-11.2,0.9-16.4-3.7c-5.5-5-3.6-12.5,2.2-19.3c4.9-5.7,12.8-10.8,20.5-11.1
				c4-0.2,5.9,0.6,8.6,2.9c3.1,2.6,7,3.1,6.2,9.4c0,0.5,0,0.9-0.2,1.4c8.2-0.1,16.6-6.4,23.2-13.4c0.7-0.8,1.9-0.9,2.6-0.2
				c0.1,0.1,0.1,0.1,0.2,0.2c2.1,2.2,1.7,5.6-0.2,8.9c5.8-4.3,15.2-9.3,19.8-9.2c4.4,0.1,6.6,4.6,5,8.4c6.1-3.9,14.7-7.9,18.8-7.8
				c4.6,0.1,5.7,5.1,3.1,9.2c-2.4,3.9-8.6,9.5-11.7,13.7c-3.6,4.9-1.9,8.9,2.8,8.7c5.1-0.2,10.9-5.7,15.9-11.8
				c0.5-0.6,1.4-0.7,2-0.2c0.1,0.1,0.1,0.1,0.2,0.2C163.5,171.1,163.5,173.9,161.9,175.9z M63.7,156.4c-3.7,2.1-7.1,4.9-9.9,8.1
				c-5.7,6.4-7.3,14.2-4,16.2s11.3-1.1,17.7-8.8c1.9-2.2,3.5-4.7,4.6-7.4C67.6,162.9,63.9,159.7,63.7,156.4z M73.9,156.4
				c-0.7-2.7-3.3-2.3-3.9,0.3c-0.3,2.4,0.9,4.7,3.1,5.7C73.9,159.9,74.2,157.9,73.9,156.4z"/>
			<path class="st0" d="M199.2,149.8c3.2,0.1,5.7,2.8,5.6,6c0,0.8-0.2,1.6-0.6,2.4c6.2-4,14.8-8,19.1-8c4.6,0.1,5.7,5.1,3.1,9.4
				c-2.3,3.9-8.6,9.5-11.9,13.8c-3.6,4.9-1.8,8.8,2.8,8.7c5.3-0.1,11.1-5.7,16.1-11.7c0.5-0.7,1.5-0.8,2.2-0.3c0,0,0.1,0.1,0.1,0.1
				c0.6,0.6,0.3,3.4-1.2,5.4c-3.6,4.9-11.9,9.2-19.3,9.2c-11.2,0-15.3-5.9-10.6-12.9s16.3-16.7,14.3-17.1c-1-0.3-5.4,0.7-13.8,6.2
				c-10.7,7.1-17,15.3-22.4,23.4c-0.5,0.9-1.7,1.2-2.6,0.7c-0.1-0.1-0.3-0.2-0.4-0.3c-2.2-1.3-4-4.6-0.3-10.8
				c4.2-7.1,18.2-18.9,15.6-19.5c-1.6-0.4-7.9,1.9-16.1,7.9c-7.6,5.5-13.8,13.4-18.9,21.5c-0.4,0.8-1.4,1-2.2,0.6
				c-0.1,0-0.2-0.1-0.2-0.2c-2.8-1.6-3.5-4.4-1.3-8.8c2.7-5.4,12.1-17.4,20.2-25.5c0.6-0.7,1.6-0.9,2.4-0.3c0.1,0.1,0.2,0.2,0.3,0.3
				c2.2,2.4,1.8,5.7-0.1,9.2C184.9,154.8,194.5,149.7,199.2,149.8z"/>
			<path class="st0" d="M231.9,172.2c3.2-6.2,11.7-16.3,16.5-20.8c1.2-1,2.1-1.3,3.1-0.5c1.9,1.4,3,5.1-0.1,9.3
				c-2.7,3.8-8.1,9.6-10.8,13.9c-3.1,5-2.8,8.3,1.3,8.1c5.8-0.2,12.9-5.8,16.8-11.7c0.4-0.6,1.2-0.7,1.7-0.3
				c0.1,0.1,0.2,0.2,0.3,0.3c1,1.4,0.6,3.2-0.9,5.3c-3.9,5.3-12,8.9-19.2,8.9C230.8,184.7,228.3,179.2,231.9,172.2z M260.6,149.9
				c-1.7,1.2-5.3,0.9-7.2-1.3c-1.6-1.5-1.7-4-0.2-5.7c0.2-0.3,0.5-0.5,0.8-0.7c2.1-1.4,5.8-0.4,7.5,1.9c1.4,1.7,1.1,4.1-0.5,5.5
				C260.9,149.7,260.8,149.8,260.6,149.9z"/>
			<path class="st0" d="M266.1,147.8c-1.3-1.1-0.3-1.6,1.7-1.6c3,0,6.6,0,10.3-0.1c3.9-4.4,7.6-8.3,9.7-10.3c1.3-1.1,2.5-1.1,3.1,0
				c1.4,2.4,1.4,5.3-1.9,9.9c6.8-0.2,13.5-0.5,18.8-0.7c2.9-3.5,6-6.9,9.3-10c1.3-1.1,2.5-0.9,3.1,0.1c1.5,2.3,1.4,5.2-1.7,9.8
				c4.9,0.3,6.8,1.5,8,2.7c0.9,1,0.3,1.6-1.7,1.5c-2.2-0.1-5.5-0.1-9.7,0c-4.9,6-12.8,14.4-17.7,21.6c-4.2,6.3-2.7,11.6,2.6,11.7
				c5.8,0.2,13-5.9,17.9-12.3c0.8-1,2.2-1.2,2.7,0c0.6,1.4,0,2.9-1.3,4.9c-1.7,2.5-10.2,10-20.6,9.8c-5.3-0.2-9.9-2.6-11.2-7
				c-4.7,4.5-11,7-17.5,7c-8.6-0.2-15.2-6.5-9.1-16.3c4.2-6.3,8.7-12.3,13.7-18C270.1,150.1,267.4,148.9,266.1,147.8z M285.3,150.2
				c-5,5.7-12,13.4-16.8,20.4c-4.2,6.2-2.7,11.6,2.7,11.7c5.7,0.2,13.3-6.4,17.4-12.8c3-4.6,9.3-12.8,15.3-20.2
				C297.5,149.7,290.8,150.1,285.3,150.2L285.3,150.2z"/>
			<path class="st0" d="M332.5,182.3c10.7,0.3,20.1-6.5,25.6-12.1c0.5-0.6,1.3-0.7,1.9-0.2c0.1,0.1,0.2,0.2,0.3,0.3
				c0.5,0.7,0.1,3.1-2.2,5.3c-5.4,5.2-15.3,9.1-25.3,9.2c-16.4,0.2-22-10.5-13.7-21.6s21.5-15.5,28-13c2.8,1,5.4,2.5,7.6,4.4
				c2.3,2.1,1.3,7.3-4.1,11.6c-6.3,5.1-15,7.4-24,2.5C322.5,176.7,325.6,182.1,332.5,182.3z M343.2,162.6c4.1-3.6,7-8.1,5.2-9
				c-2.7-1.4-13.4,3.7-19.5,11.8c-0.4,0.5-0.7,1-1,1.5C334.1,169.6,339.4,165.9,343.2,162.6L343.2,162.6z"/>
			<path class="st0" d="M373.7,182.3c10.7,0.3,20.1-6.5,25.6-12.1c0.5-0.6,1.3-0.7,1.9-0.2c0.1,0.1,0.2,0.2,0.3,0.3
				c0.5,0.7,0.1,3.1-2.2,5.3c-5.4,5.2-15.3,9.1-25.3,9.2c-16.4,0.2-22-10.5-13.7-21.6s21.5-15.5,28-13c2.8,1,5.4,2.5,7.6,4.4
				c2.3,2.1,1.3,7.3-4.1,11.6c-6.3,5.1-15,7.4-24,2.5C363.8,176.7,366.9,182.1,373.7,182.3z M384.4,162.6c4.1-3.6,7-8.1,5.2-9
				c-2.7-1.4-13.4,3.7-19.5,11.8c-0.4,0.5-0.7,1-1,1.5C375.4,169.6,380.7,165.9,384.4,162.6L384.4,162.6z"/>
		</g>
	</g>
</g>
<g id="パス">
	<path class="st1" d="M91.6,36.8c0,0,13-11.2,4.1-16.3S69.9,33.8,70,35.2s-6.7,11.1-0.7,13.2s12.1,11.1,31.1-1.6s16.9-15,24.4-17.1
		c7.5-2,21.5-17.4,18-23.5s-3.3-4-3.3-4s-31.4,30.3-31.8,42s8.1,8.6,7.7,9.3c-0.2,0.3,9.9-3.1,19.3-9c0.5-0.3,1-0.7,1.6-1
		c7.1-4.7,13.3-10.9,13.8-17.9c1.2-16.8,1.6-5.3,1.6-5.3l-16.1,27.2c0,0,6.3,7.4,10.6,5.6c4.3-1.9,31.6-29.4,31.6-29.4
		s-17,23.1-16.6,24.5s2.9,6,6.5,5.3c3.6-0.6,19.5-6.2,20.5-8.7c1-2.4,21.3-24.3,21.8-24.6c0.5-0.3,1.4,28.1-4,31.1
		c-5.4,3-15.1-0.3-15.2-2.2c-0.2-1.9-6.8-10.8-5.9-11.6s1.9,21.3,25.5,13.8s29-24.3,29-24.3l15.4-21.3l-5.8,11.4L233.1,17l26.8,0.5
		l-17.7,1.4c0,0-17,25.9-15.2,28.7c1.9,2.8,11.7,8.6,15.4,5.7c3.7-2.9,18.8-19.3,18.8-19.3s19.6-16.6,19.7-13.6s17.7,0.2,2.1,13.6
		c-15.6,13.4-17.5-0.8-16.9,4.3c0.6,5.1,18.3,1.3,17.6-1.5c-0.7-2.8,2.8-10.9,2.8-10.9s-12.5-4.4-13.1-2.9
		c-0.5,1.6-17.3,16.6-16.1,19.9c1.2,3.3,2.7,13.7,17.2,8.5c14.5-5.2,17.3-3,26.2-16.1c8.9-13.1,12.7-14.2,12.1-18
		c-0.6-3.8-7,1.7-7,1.7s-3.8,3.2-1.9,5.1s19.5,2.8,19.8,1.4c0.3-1.4,5.5-2.4,5.5-2.4s-17.4,18.3-17.1,20.6c0.2,2.3,0.1,11.7,9.7,8
		c9.6-3.6,14.5-6.4,14.8-11.1"/>
	<path class="st1" d="M31.2,135.9l37.7-46.4c0,0,19.8-6,19.6,0.5c-0.2,6.5-11.5,27-14.3,27.6c-2.8,0.6-12.8,0.8-13.4,0.5
		c-0.6-0.3-12.4-11.9-5.8-15.6s1.1,6,1.1,6s1.3,11.2,8.2,11.4c6.9,0.2,15.3,5.8,28.4-6s25.6-23.5,26.9-28.4c1.3-4.9-3-1.8-3-1.8
		s-3.9,2.6-5,4.9c-1.1,2.3,0.8,6.5,6,5.7s15.6-4.2,15.6-4.2l1.3,2.9c0,0-13.6,13.4-14.7,15.2c-1.1,1.8-1.5,9.4,1.5,9.9
		c3,0.6,4.3,4.8,13.2-0.9c8.9-5.7,20.6-28.3,21-27.1c0.4,1.2,7.8-1.8,11.9-1.5c4.1,0.3,18.8,5.1,6.6,18.3s-21.1,10.5-22.6,11.3
		c-1.5,0.8-10.2-5.7-4.5-11c5.6-5.3,8.7-13.7,9.3-14.1c0.6-0.4,9.2-2.9,9.2-2.9s2.8,6.2,4.5,6.8c1.6,0.5,8.7,5.6,12.5,3.3
		c3.8-2.4,18.7-29.4,18.7-29.4l44.4-3.8c0,0-35.5,44.7-38.4,45.3s-9.5,8.8-16.7,7.1c-7.1-1.7-1.4-15.5-1.4-15.5s13.6-11.4,14.9-11.8
		c1.3-0.4,14.9-7.1,14.1-4.8c-0.8,2.3,1.2,18.8-3.1,23.4c-4.3,4.7-2.1,8.3-1.5,8.5c0.6,0.2,9.1,0.4,9.1,0.4s18.4-8.7,19.3-12.7
		s12-19.6,12-19.6L238,107.1c0,0-1.7,13.8,3.2,12.2c4.9-1.6,12.6-2.2,17.3-7.1c4.8-4.9,21.7-25.7,21.7-25.7v6.4
		c0,0-11.9,13.2-13.4,15.4c-1.5,2.2-6.1,10.7,2.4,11.2c8.5,0.4,19.1-8.7,19.1-8.7s17.1-22.2,19.7-20.8c2.6,1.4,11-6.9,12.6-0.5
		c1.5,6.4-3.2,11.9-3.2,11.9l3.5-1.3l1.9-10.1c0,0-11.3-9-22.3,2c-11,11-7.6,17.5-7.8,18.6c-0.2,1.1,3.9,12.8,18,8.5
		c14.1-4.3,29.5-21.1,33.1-29.1c3.7-8,14.8-19.4,14.8-19.4l-6.6,12.9l-17.9-0.4l28.3-1.2l-13.7,3.3c0,0-20.3,23.9-18.9,26.6
		c1.4,2.7,1,12,12.9,6.1c11.9-5.9,15.2-6.1,15.8-11"/>
	<path class="st1" d="M30,167.6c0,0,5.2-11,3.7-13c-1.4-2-2.9-5.2-15.6,0c-12.7,5.2-13.2,22.7-13.2,22.7s7.7,11.9,21.4,5.3
		c13.7-6.6,35.6-29.5,35.6-29.5s1.5-0.2,3.5-0.4c3.4-0.3,8.2-0.5,8.6,0.9c0.6,2.3,9.9,13.6-2,22.1c-11.9,8.4-18.2,7.2-18.2,7.2
		s-13.2-1.1-9.1-7.9s7.5-17.4,8.3-17.5c0.8-0.2,14.2-5.4,13.2-2.9c-1,2.5,2.5,7.6,3.7,7.9s12.9,3,16.9,1.4
		c4-1.6,16.1-10.1,17.9-10.8c1.8-0.6-17.7,24.9-18.8,27.2c-1.1,2.3,35.7-36.1,39.1-27s-18.7,29.3-18.7,29.3s39.8-34.4,41.7-30.7
		c1.9,3.7-3.2,17.5-11.6,24.3s10.3,7.7,10.3,7.7s32.8-18.8,29.8-28.5c-3.1-9.7,2.8-2.9,2.8-2.9l-21.5,27.5c0,0,43.6-40.1,42.2-27
		s-19.8,27.4-19.8,27.4s41.3-37.9,43-28.2s-16.9,26.1-16.9,26.1s13.2,11.7,22.1,0.8s21.6-26.4,21.6-26.4s-19.2,24.8-14.8,27
		c4.4,2.3,4.2,3.9,4.2,3.9s13.8,0.3,18-7.9c4.2-8.2,28.5-32.2,30.4-35.9s-25.5,36.2-25.3,37c0.2,0.8-0.4,6.5,9.5,5.8
		c10-0.7,45.4-37.2,45.4-43.1c0-5.9-26.9,36.9-26.6,38.1c0.3,1.1,3,5.9,8.4,5c5.3-0.9,11.5-0.9,14-3.9c2.5-3,12.6-11.4,12.6-11.4
		s12.1,5.2,15,1.7c2.9-3.5,12.6-9.8,11.1-12.7s-5.5-10.4-16.6-2.8c-11.1,7.6-14.3,20.5-14.3,21.6s5.6,11.7,14.6,8.2
		s19.3-6.8,19.3-6.8l12.7-8.6c0,0,11.1,3.2,13.2,1.1s11.7-7.4,11.7-11.3s-3.4-7.1-9.7-5.6c-6.3,1.4-17.4,9-18,10.6
		c-0.6,1.6-3.8,14.2-2.5,15.8c1.3,1.6,9,7.4,18.3,4c9.3-3.4,19-6.9,19.6-10.5"/>
	<polyline class="st1" points="257.3,146.1 261,149.6 267.7,146.1 324.4,147.9 	"/>
</g>
</svg>
